<svg width="18" height="18" viewBox="0 0 18 18" fill="none" xmlns="http://www.w3.org/2000/svg">
<path d="M9 18C4.02919 18 0 13.9708 0 9C0 4.02919 4.02919 0 9 0C13.9708 0 18 4.02919 18 9C18 13.9708 13.9708 18 9 18ZM6.81525 8.10225L9 5.9175L11.1859 8.10338L12.4571 6.83212L9 3.375L5.544 6.831L6.81525 8.10225ZM3.375 9L4.64625 10.2713L5.9175 9L4.64625 7.72875L3.375 9ZM6.81525 9.89775L5.54231 11.1673L5.544 11.169L9 14.625L12.4571 11.1679V11.1673L11.1859 9.89606L9 12.0825L6.81525 9.89775ZM12.0825 9L13.3537 10.2713L14.625 9L13.3537 7.72875L12.0825 9ZM10.2892 8.99888H10.2898L9 7.70963L8.04656 8.6625L7.93687 8.77219L7.71131 8.99831L7.70906 9L7.71131 9.00169L8.99944 10.2904L10.2898 9.00056L10.2904 9L10.2892 8.99944V8.99888Z" fill="#F3BA2F"/>
</svg>
