<svg width="18" height="18" viewBox="0 0 18 18" fill="none" xmlns="http://www.w3.org/2000/svg">
<path d="M9 18C13.9705 18 18 13.9705 18 9C18 4.02944 13.9705 0 9 0C4.02944 0 0 4.02944 0 9C0 13.9705 4.02944 18 9 18Z" fill="#16C784"/>
<path d="M8.60685 14.25H9.41603L9.41985 13.3108C11.0573 13.1836 11.9962 12.2156 12 10.8416C11.9962 9.38558 10.8779 8.72108 9.7023 8.42168L9.45038 8.35193L9.46568 6.00996C10.0763 6.12481 10.4695 6.51856 10.5305 7.10918H11.8931C11.8703 5.80488 10.916 4.85332 9.47325 4.70567L9.47708 3.75H8.66797L8.66415 4.70567C7.23283 4.86152 6.20229 5.80488 6.20611 7.1625C6.20611 8.36835 7.00382 9.0615 8.29005 9.41835L8.63363 9.5127L8.61833 11.9942C7.93515 11.8793 7.44274 11.4609 7.39313 10.7186H6C6.05344 12.2567 7.03816 13.1713 8.61068 13.3108L8.60685 14.25ZM9.4275 11.9942L9.44272 9.74235C10.1374 9.95978 10.5802 10.2469 10.584 10.8293C10.5802 11.4363 10.126 11.8711 9.4275 11.9942ZM8.6412 8.13045C8.11447 7.95 7.63358 7.6506 7.64123 7.06817C7.64505 6.53906 8.01525 6.12891 8.6565 6.00996L8.6412 8.13045Z" fill="white"/>
</svg>
